<svg width="24" height="24" viewBox="0 0 24 24" fill="none" xmlns="http://www.w3.org/2000/svg">
<path fill-rule="evenodd" clip-rule="evenodd" d="M12 3C7.032 3 3 7.032 3 12C3 16.968 7.032 21 12 21C16.968 21 21 16.968 21 12C21 7.032 16.968 3 12 3ZM12 7.5C11.5029 7.5 11.1 7.90294 11.1 8.4C11.1 8.89706 11.5029 9.3 12 9.3C12.4971 9.3 12.9 8.89706 12.9 8.4C12.9 7.90294 12.4971 7.5 12 7.5ZM12.9 15.6C12.9 16.095 12.495 16.5 12 16.5C11.505 16.5 11.1 16.095 11.1 15.6V12C11.1 11.505 11.505 11.1 12 11.1C12.495 11.1 12.9 11.505 12.9 12V15.6ZM4.35 12C4.35 16.2171 7.78294 19.65 12 19.65C16.2171 19.65 19.65 16.2171 19.65 12C19.65 7.78294 16.2171 4.35 12 4.35C7.78294 4.35 4.35 7.78294 4.35 12Z" fill="white" fill-opacity="0.96"/>
</svg>
