<svg width="24" height="24" viewBox="0 0 24 24" fill="none" xmlns="http://www.w3.org/2000/svg">
<path d="M12.7854 3.22335C12.6427 3.08036 12.449 3 12.2471 3C12.0451 3 11.8511 3.08067 11.7083 3.22371C11.41 3.52201 11.41 4.01496 11.7083 4.31326L18.3886 10.9935H3.76547C3.34548 10.9935 3 11.339 3 11.759C3 12.179 3.34548 12.5245 3.76547 12.5245H18.3886L11.7083 19.2047C11.41 19.503 11.41 19.9839 11.7083 20.2822C12.0066 20.5805 12.4875 20.5805 12.7858 20.2822L20.7763 12.2916C21.0746 11.9933 21.0746 11.5125 20.7763 11.2142L12.7854 3.22335Z" fill="white" fill-opacity="0.96"/>
</svg>
