<svg width="24" height="24" viewBox="0 0 24 24" fill="none" xmlns="http://www.w3.org/2000/svg">
<path d="M11.2146 3.22335C11.3573 3.08036 11.551 3 11.7529 3C11.9549 3 12.1489 3.08067 12.2917 3.22371C12.59 3.52201 12.59 4.01496 12.2917 4.31326L5.6114 10.9935H20.2345C20.6545 10.9935 21 11.339 21 11.759C21 12.179 20.6545 12.5245 20.2345 12.5245H5.6114L12.2917 19.2047C12.59 19.503 12.59 19.9839 12.2917 20.2822C11.9934 20.5805 11.5125 20.5805 11.2142 20.2822L3.22372 12.2916C2.92543 11.9933 2.92543 11.5125 3.22372 11.2142L11.2146 3.22335Z" fill="white" fill-opacity="0.96"/>
</svg>
