<svg width="24" height="24" viewBox="0 0 24 24" fill="none" xmlns="http://www.w3.org/2000/svg">
<path fill-rule="evenodd" clip-rule="evenodd" d="M12 3C7.032 3 3 7.032 3 12C3 16.968 7.032 21 12 21C16.968 21 21 16.968 21 12C21 7.032 16.968 3 12 3ZM12 19.65C7.78294 19.65 4.35 16.2171 4.35 12C4.35 7.78294 7.78294 4.35 12 4.35C16.2171 4.35 19.65 7.78294 19.65 12C19.65 16.2171 16.2171 19.65 12 19.65ZM15.8645 9.14754C16.226 8.80437 16.7967 8.82033 17.1389 9.18119L17.0664 9.25002C17.3712 9.57118 17.3576 10.0785 17.0365 10.3831L11.3456 15.7801C11.1904 15.9268 10.9922 16 10.7939 16C10.5849 16 10.3765 15.9188 10.2197 15.7577L7.22733 12.6854C6.91848 12.3682 6.92516 11.8609 7.24231 11.552C7.55973 11.2429 8.06656 11.2498 8.37568 11.567L10.8163 14.0729L15.9333 9.22008C15.9563 9.19826 15.9802 9.17808 16.005 9.15952L15.8645 9.14754Z" fill="white"/>
</svg>
