<svg width="24" height="24" viewBox="0 0 24 24" fill="none" xmlns="http://www.w3.org/2000/svg">
<path d="M3.26817 3.2673C3.43891 3.09617 3.67072 3 3.91247 3C4.15421 3 4.38644 3.09659 4.55719 3.26773L11.9996 10.7102L19.4424 3.28256L19.4432 3.28176C19.614 3.11063 19.8458 3.01445 20.0875 3.01445C20.3293 3.01445 20.5615 3.11105 20.7323 3.28218C21.0748 3.62472 21.0748 4.21463 20.7323 4.55717L13.2895 12L20.7323 19.4428C21.0893 19.7998 21.0893 20.3753 20.7323 20.7323C20.3753 21.0892 19.7998 21.0892 19.4428 20.7323L12 13.2894L4.55719 20.7323C4.2002 21.0892 3.62474 21.0892 3.26775 20.7323C2.91075 20.3753 2.91075 19.7998 3.26775 19.4428L10.7106 12L3.26775 4.55717C2.91075 4.20018 2.91117 3.6243 3.26817 3.2673Z" fill="white" fill-opacity="0.96"/>
</svg>
