<svg width="24" height="24" viewBox="0 0 24 24" fill="none" xmlns="http://www.w3.org/2000/svg">
<path fill-rule="evenodd" clip-rule="evenodd" d="M18.2192 8.39375C18.225 8.38748 18.2309 8.3813 18.237 8.37522C18.5796 8.03255 18.7684 7.56858 18.7684 7.06921C18.7684 6.56984 18.5796 6.10587 18.237 5.7632C17.894 5.42023 17.43 5.2315 16.9307 5.2315C16.4334 5.2315 15.9712 5.41865 15.629 5.7589C15.6276 5.76025 15.6263 5.76159 15.625 5.76292L14.3186 7.06925L16.9312 9.68176L18.2192 8.39375ZM14.7371 4.90943C14.7425 4.90362 14.748 4.89788 14.7537 4.89222C15.3288 4.3168 16.1019 4 16.9307 4C17.7592 4 18.5325 4.3168 19.1076 4.89222C19.6831 5.46733 19.9999 6.24041 19.9999 7.06921C19.9999 7.89034 19.6889 8.65676 19.1236 9.23017C19.1185 9.23562 19.1133 9.24101 19.108 9.24632L9.48595 18.8684C9.39332 18.961 9.27863 19.0179 9.15885 19.0392L4.75897 19.9831C4.73247 19.9895 4.70542 19.9941 4.67797 19.9969C4.657 19.999 4.6361 20 4.61535 20C4.33118 20 4.07595 19.8023 4.01376 19.5132C3.9935 19.4185 3.99618 19.3242 4.01807 19.2361L4.96353 14.8291C4.98649 14.7139 5.04263 14.6039 5.13197 14.5146L14.7371 4.90943ZM6.13135 15.2565L13.448 7.93992L16.0605 10.5524L8.74397 17.8687L5.41786 18.5823L6.13135 15.2565Z" fill="white" fill-opacity="0.96"/>
</svg>
