<svg width="24" height="24" viewBox="0 0 24 24" fill="none" xmlns="http://www.w3.org/2000/svg">
<path d="M18.9652 4H5.03585C3.91305 4 3 4.91275 3 6.03687V18.8388C3 19.9616 3.91305 20.8733 5.03585 20.8733H18.9651C20.0879 20.8733 21 19.9616 21 18.8388V6.03687C21.0001 4.91275 20.088 4 18.9652 4ZM14.6398 7.02921C15.7256 7.02921 16.6061 7.90984 16.6061 8.99558C16.6061 10.0813 15.7255 10.962 14.6398 10.962C13.5537 10.962 12.6734 10.0813 12.6734 8.99558C12.6734 7.90984 13.5537 7.02921 14.6398 7.02921ZM18.3267 18.9915H11.9998H5.95486C5.41178 18.9915 5.16991 18.5985 5.41473 18.1138L8.78939 11.4297C9.0339 10.945 9.49992 10.9017 9.82994 11.3329L13.2233 15.7675C13.5533 16.1988 14.1301 16.2355 14.5119 15.8491L15.342 15.0085C15.7235 14.622 16.2856 14.6699 16.5969 15.1146L18.7465 18.1852C19.0572 18.6306 18.8698 18.9915 18.3267 18.9915Z" fill="white"/>
</svg>
