<svg width="24" height="24" viewBox="0 0 24 24" fill="none" xmlns="http://www.w3.org/2000/svg">
<path fill-rule="evenodd" clip-rule="evenodd" d="M12.0109 3.25729C13.9304 3.17383 15.8534 3.80952 17.4057 5.04389C17.7092 5.28519 17.7322 5.74945 17.4414 6.0611C17.1476 6.37585 16.6281 6.39794 16.2417 6.1161C13.4208 4.05865 9.35886 4.29511 6.82322 6.83075C4.02559 9.62838 4.02559 14.2867 6.82322 17.0843C9.62085 19.8819 14.2791 19.8819 17.0768 17.0843C18.1719 15.9892 18.9251 14.5501 19.1666 13.0428C19.2385 12.5945 19.5935 12.2575 20 12.2575C20.4224 12.2575 20.7392 12.596 20.6976 12.979C20.2203 17.3767 16.5337 20.7575 12 20.7575C7.13807 20.7575 3.25 16.8695 3.25 12.0075C3.25 7.1456 7.13807 3.25752 12 3.25752V3.25776L12.0109 3.25729Z" fill="white"/>
</svg>
