<svg width="24" height="24" viewBox="0 0 24 24" fill="none" xmlns="http://www.w3.org/2000/svg">
<path d="M12 3C12.0775 3 12.1511 3.01603 12.2178 3.04487C12.2696 3.06726 12.3189 3.09812 12.3633 3.1374C12.3728 3.14579 12.3825 3.15501 12.3914 3.16404L14.6878 5.46043C14.9021 5.67481 14.9021 6.02239 14.6878 6.23677C14.4734 6.45115 14.1258 6.45115 13.9114 6.23677L12.5489 4.87426V14.6878C12.5489 14.991 12.3032 15.2368 12 15.2368C11.6968 15.2368 11.451 14.991 11.451 14.6878V4.87423L10.0885 6.23677C9.8741 6.45115 9.5265 6.45115 9.31213 6.23678C9.09777 6.02239 9.09777 5.67481 9.31213 5.46043L11.6118 3.16078C11.6662 3.10634 11.7291 3.06583 11.796 3.0391C11.8589 3.01391 11.9277 3 12 3Z" fill="white"/>
<path d="M10.0885 17.7632L11.451 19.1257V14.6003C11.451 14.2971 11.6968 14.0513 12 14.0513C12.3032 14.0513 12.5489 14.2971 12.5489 14.6003V19.1257L13.9114 17.7632C14.1258 17.5488 14.4734 17.5488 14.6878 17.7632C14.9021 17.9776 14.9021 18.3252 14.6878 18.5395L12.3881 20.8392C12.3245 20.9028 12.2495 20.9474 12.1697 20.9732C12.1505 20.9794 12.1308 20.9847 12.1107 20.9888C11.9358 21.0246 11.7472 20.9746 11.6118 20.8392L9.31213 18.5395C9.09777 18.3252 9.09777 17.9776 9.31213 17.7632C9.52649 17.5488 9.8741 17.5488 10.0885 17.7632Z" fill="white"/>
<path d="M6.23677 14.6878C6.45115 14.4734 6.45115 14.1258 6.23677 13.9115L4.8742 12.5489H15.5393C15.8424 12.5489 16.0882 12.3031 16.0882 11.9999C16.0882 11.6967 15.8424 11.451 15.5393 11.451H4.87429L6.23677 10.0885C6.45115 9.87413 6.45115 9.52653 6.23677 9.31216C6.02239 9.0978 5.67481 9.0978 5.46043 9.31216L3.16482 11.6078C3.15048 11.6218 3.13686 11.6367 3.12412 11.6522C3.09367 11.6893 3.06884 11.7295 3.04962 11.7715C3.01779 11.8409 3 11.9182 3 11.9999C3 12.0686 3.01261 12.1343 3.03549 12.1946C3.06214 12.265 3.10383 12.3312 3.16078 12.3881L5.46044 14.6878C5.67482 14.9022 6.02239 14.9022 6.23677 14.6878Z" fill="white"/>
<path d="M20.8341 11.6068L20.8348 11.6075C20.8517 11.624 20.8675 11.6416 20.8821 11.6601C20.9072 11.6918 20.9282 11.7256 20.9453 11.7609C20.9802 11.833 20.9999 11.914 20.9999 11.9999C20.9999 12.0722 20.986 12.141 20.9608 12.2039C20.934 12.2709 20.8936 12.3337 20.8391 12.3881L18.5395 14.6878C18.3251 14.9022 17.9775 14.9022 17.7631 14.6878C17.5488 14.4734 17.5488 14.1258 17.7631 13.9115L19.1257 12.5489H14.6003C14.2971 12.5489 14.0513 12.3031 14.0513 11.9999C14.0513 11.6967 14.2971 11.451 14.6003 11.451H19.1256L17.7631 10.0885C17.5488 9.87413 17.5488 9.52653 17.7631 9.31216C17.9775 9.0978 18.3251 9.0978 18.5395 9.31216L20.8341 11.6068Z" fill="white"/>
</svg>
