<svg width="24" height="24" viewBox="0 0 24 24" fill="none" xmlns="http://www.w3.org/2000/svg">
<path d="M11.6 4.8001C11.2685 4.8001 11 5.06856 11 5.4001C11 5.73164 11.2685 6.0001 11.6 6.0001H13.4C13.7315 6.0001 14 5.73164 14 5.4001C14 5.06856 13.7315 4.8001 13.4 4.8001H11.6Z" fill="white" fill-opacity="0.96"/>
<path d="M11.55 17.0001C10.9701 17.0001 10.5 17.4702 10.5 18.0501C10.5 18.63 10.9701 19.1001 11.55 19.1001C12.1299 19.1001 12.6 18.63 12.6 18.0501C12.6 17.4702 12.1299 17.0001 11.55 17.0001Z" fill="white" fill-opacity="0.96"/>
<path d="M9.70001 4.8001C9.36864 4.8001 9.10001 5.06873 9.10001 5.4001C9.10001 5.73147 9.36864 6.0001 9.70001 6.0001C10.0314 6.0001 10.3 5.73147 10.3 5.4001C10.3 5.06873 10.0314 4.8001 9.70001 4.8001Z" fill="white" fill-opacity="0.96"/>
<path fill-rule="evenodd" clip-rule="evenodd" d="M7.95 2.8501C6.87477 2.8501 6 3.72486 6 4.8001V19.2001C6 20.2753 6.87477 21.1501 7.95 21.1501H15.15C16.2252 21.1501 17.1 20.2753 17.1 19.2001V4.8001C17.1 3.72486 16.2252 2.8501 15.15 2.8501H7.95ZM7.2 4.8001C7.2 4.38583 7.53573 4.0501 7.95 4.0501H15.15C15.5643 4.0501 15.9 4.38583 15.9 4.8001V19.2001C15.9 19.6144 15.5643 19.9501 15.15 19.9501H7.95C7.53573 19.9501 7.2 19.6144 7.2 19.2001V4.8001Z" fill="white" fill-opacity="0.96"/>
</svg>
