<svg width="24" height="24" viewBox="0 0 24 24" fill="none" xmlns="http://www.w3.org/2000/svg">
<path d="M14.903 13.5427C14.903 15.1435 13.6008 16.4457 12 16.4457C10.3992 16.4457 9.09753 15.1435 9.09753 13.5427C9.09753 11.9419 10.3992 10.6397 12 10.6397C13.6008 10.6397 14.903 11.9424 14.903 13.5427ZM21 9.42063V17.6658C21 18.765 20.1088 19.6562 19.0096 19.6562H4.99038C3.89119 19.6562 3 18.765 3 17.6658V9.42063C3 8.32145 3.89119 7.43025 4.99038 7.43025H7.43855V6.74158C7.43855 5.77973 8.21778 5 9.18013 5H14.8199C15.7822 5 16.5615 5.77973 16.5615 6.74158V7.42976H19.0096C20.1088 7.43025 21 8.32145 21 9.42063ZM16.3958 13.5427C16.3958 11.1189 14.4238 9.14696 12 9.14696C9.57671 9.14696 7.60474 11.1189 7.60474 13.5427C7.60474 15.9665 9.57671 17.9385 12 17.9385C14.4238 17.9385 16.3958 15.9665 16.3958 13.5427Z" fill="white"/>
</svg>
