<svg width="24" height="24" viewBox="0 0 24 24" fill="none" xmlns="http://www.w3.org/2000/svg">
<path fill-rule="evenodd" clip-rule="evenodd" d="M19.4095 4C19.5097 4 19.6036 4.02482 19.6859 4.0685C19.7153 4.08411 19.7439 4.10252 19.771 4.12354C19.8072 4.15164 19.8402 4.18397 19.869 4.21962C19.9 4.2579 19.9255 4.29917 19.9455 4.34221C19.9786 4.41358 19.9979 4.49278 19.9998 4.57667L19.9999 4.57768L20 4.59374V8.45449C20 8.78063 19.7356 9.04503 19.4094 9.04504C19.0833 9.04505 18.8189 8.78064 18.8189 8.45451V6.0163L14.9118 9.92346C14.8763 9.95888 14.8377 9.98871 14.797 10.0131L14.7777 10.0247L6.0162 18.7861H8.45451C8.78064 18.7861 9.04505 19.0506 9.04504 19.3767C9.04503 19.7028 8.78063 19.9672 8.45449 19.9672L4.59055 19.9672C4.5008 19.9672 4.41608 19.9473 4.34037 19.9118C4.29153 19.889 4.24502 19.859 4.2025 19.8218C4.1835 19.8053 4.16551 19.7874 4.14877 19.7686C4.10501 19.7194 4.07097 19.6647 4.04658 19.6071C4.02024 19.545 4.00421 19.4773 4.00072 19.4061C4.00018 19.3951 3.99994 19.3842 4.00001 19.3732L4.00001 15.5127C4.00002 15.1866 4.26442 14.9222 4.59056 14.9222C4.91669 14.9222 5.1811 15.1866 5.18109 15.5127L5.18109 17.9509L17.9509 5.18108L15.5455 5.18108C15.2194 5.18109 14.955 4.91668 14.955 4.59055C14.955 4.26441 15.2194 4.00001 15.5455 4L19.4095 4Z" fill="white"/>
</svg>
