<svg width="24" height="24" viewBox="0 0 24 24" fill="none" xmlns="http://www.w3.org/2000/svg">
<path d="M18.9751 9.3228L7.26181 3.38891C6.81305 3.13401 6.30579 3 5.7897 3C5.2736 3 4.76634 3.13401 4.31758 3.38891C3.87887 3.68798 3.52686 4.09753 3.2971 4.5762C3.06734 5.05486 2.96797 5.58569 3.00904 6.11505V17.9101C2.96983 18.4393 3.07003 18.9694 3.29963 19.4478C3.52923 19.9261 3.88021 20.3359 4.31758 20.6363C4.72314 20.8806 5.18903 21.0065 5.66248 20.9997C6.22021 20.9902 6.76795 20.8502 7.26181 20.5908L18.9751 14.6751C20.7107 13.7664 20.9652 12.6396 20.9652 12.0217C20.9652 11.4037 20.7107 10.2042 18.9751 9.3228Z" fill="white"/>
</svg>
