<svg width="24" height="24" viewBox="0 0 24 24" fill="none" xmlns="http://www.w3.org/2000/svg">
<path d="M13.8147 11.2609C13.5221 11.6336 13.1876 11.9 13.0212 12.0294C12.6589 12.3127 12.4524 12.5704 12.3454 12.8612C12.2415 13.1439 12.2404 13.4379 12.2404 13.7574C12.2404 13.8416 12.2191 13.9056 12.1676 13.9526C12.1122 14.0032 11.9864 14.0667 11.7055 14.0667C11.4638 14.0667 11.3721 14.0204 11.3247 13.9641C11.2674 13.8961 11.2208 13.7533 11.2208 13.4316C11.2208 12.9245 11.3323 12.5605 11.4795 12.2901C11.6271 12.0188 11.8163 11.8309 11.9889 11.682C12.0593 11.6222 12.1397 11.5605 12.2286 11.4922L12.2363 11.4864C12.4301 11.3376 12.6615 11.1599 12.8429 10.9455C13.0299 10.7245 13.1759 10.4507 13.1759 10.1103C13.1759 9.75322 13.0162 9.47804 12.7588 9.29983C12.5101 9.12763 12.1828 9.05352 11.8434 9.05352C11.4422 9.05352 11.1602 9.14172 10.9488 9.28418C10.7455 9.42127 10.6257 9.59803 10.5353 9.73144L10.5302 9.73897C10.4592 9.84366 10.4125 9.90977 10.3576 9.95532C10.3129 9.99243 10.2588 10.0186 10.164 10.0186C10.0363 10.0186 9.89496 9.97505 9.7895 9.89C9.68965 9.80947 9.61656 9.68837 9.61656 9.50871C9.61656 8.97969 10.2637 8.03386 11.881 8.03386C13.4193 8.03386 14.346 8.87405 14.346 9.89728C14.346 10.4234 14.1079 10.8873 13.8147 11.2609Z" fill="white"/>
<path d="M10.9701 16.101C10.9701 15.6841 11.3081 15.3405 11.718 15.3405C12.1315 15.3405 12.4785 15.6876 12.4785 16.101C12.4785 16.5054 12.1406 16.8615 11.718 16.8615C11.299 16.8615 10.9701 16.5089 10.9701 16.101Z" fill="white"/>
<path fill-rule="evenodd" clip-rule="evenodd" d="M3 12C3 7.0252 7.02587 3 12 3C16.9748 3 21 7.02587 21 12C21 16.9748 16.9741 21 12 21H3.51456C3.23037 21 3 20.7696 3 20.4854V12ZM4.02912 12V19.9709H12C16.4058 19.9709 19.9709 16.4052 19.9709 12C19.9709 7.59422 16.4052 4.02912 12 4.02912C7.59422 4.02912 4.02912 7.59481 4.02912 12Z" fill="white"/>
</svg>
