<svg width="24" height="24" viewBox="0 0 24 24" fill="none" xmlns="http://www.w3.org/2000/svg">
<path d="M8.99805 17.1001L10.4903 15.6079L10.066 15.5624C7.70809 15.3098 5.67907 14.6371 4.24584 13.7024C2.81013 12.766 2 11.588 2 10.3231C2 8.90179 3.04859 7.57453 4.85891 6.59089C6.66208 5.61113 9.17813 5 12 5C14.8219 5 17.3379 5.61113 19.1411 6.59089C20.9514 7.57453 22 8.90179 22 10.3231C22 11.4316 21.3873 12.4833 20.261 13.3616C19.1345 14.2401 17.509 14.9314 15.533 15.3098L15.5314 15.3101C15.1974 15.3769 14.8149 15.172 14.7523 14.7964C14.7167 14.5825 14.7546 14.4021 14.8393 14.2712C14.9225 14.1425 15.0616 14.0448 15.2649 14.0109L15.2702 14.0099C16.8198 13.7086 18.1646 13.1903 19.1276 12.5556C20.0801 11.9278 20.7075 11.1517 20.7075 10.3231C20.7075 9.80867 20.4569 9.29935 20.0308 8.83404C19.6036 8.3677 18.9879 7.93135 18.2228 7.55691C16.6917 6.80767 14.5343 6.29252 12 6.29252C9.46572 6.29252 7.30828 6.80767 5.77722 7.55691C5.01206 7.93135 4.39638 8.3677 3.96924 8.83404C3.54306 9.29935 3.29252 9.80867 3.29252 10.3231C3.29252 11.1978 3.98805 12.059 5.10142 12.74C6.2271 13.4285 7.83047 13.9673 9.76658 14.1824L10.3448 14.2467L8.99805 12.8999C8.73761 12.6395 8.73761 12.2585 8.99805 11.998C9.25849 11.7376 9.63947 11.7376 9.89991 11.998L12.4509 14.5491C12.7114 14.8095 12.7114 15.1905 12.4509 15.4509L9.89991 18.002C9.82692 18.0749 9.76205 18.1216 9.6956 18.1511C9.63004 18.1802 9.55272 18.1973 9.44898 18.1973C8.8785 18.1973 8.60714 17.491 8.99805 17.1001Z" fill="white"/>
</svg>
