<svg width="24" height="24" viewBox="0 0 24 24" fill="none" xmlns="http://www.w3.org/2000/svg">
<path fill-rule="evenodd" clip-rule="evenodd" d="M11.428 3.23695C11.5797 3.08523 11.7854 3 12 3C12.2146 3 12.4203 3.08523 12.572 3.23695C12.7238 3.38866 12.809 3.59443 12.809 3.80899V13.6917L15.9759 10.5152C16.0514 10.4397 16.1409 10.3799 16.2395 10.339C16.3382 10.2982 16.4438 10.2772 16.5506 10.2772C16.6573 10.2772 16.763 10.2982 16.8616 10.339C16.9602 10.3799 17.0498 10.4397 17.1252 10.5152C17.2007 10.5907 17.2606 10.6803 17.3014 10.7789C17.3422 10.8775 17.3633 10.9832 17.3633 11.0899C17.3633 11.1966 17.3422 11.3023 17.3014 11.4009C17.2606 11.4995 17.2007 11.5891 17.1252 11.6646L12.5744 16.2154C12.4992 16.2912 12.4097 16.3514 12.3111 16.3925C12.2125 16.4336 12.1068 16.4547 12 16.4547C11.8932 16.4547 11.7875 16.4336 11.6889 16.3925C11.5903 16.3514 11.5005 16.2909 11.4253 16.2151L6.87476 11.6646C6.72235 11.5121 6.63672 11.3054 6.63672 11.0899C6.63672 10.8743 6.72235 10.6676 6.87476 10.5152C7.02717 10.3628 7.23389 10.2772 7.44943 10.2772C7.66493 10.2772 7.87171 10.3629 8.02411 10.5152L11.191 13.6917V3.80899C11.191 3.59443 11.2762 3.38866 11.428 3.23695ZM3.23695 18.7089C3.38866 18.5572 3.59443 18.472 3.80899 18.472H20.191C20.4056 18.472 20.6113 18.5572 20.7631 18.7089C20.9148 18.8606 21 19.0664 21 19.2809C21 19.4955 20.9148 19.7013 20.7631 19.853C20.6113 20.0047 20.4056 20.0899 20.191 20.0899H3.80899C3.59443 20.0899 3.38866 20.0047 3.23695 19.853C3.08523 19.7013 3 19.4955 3 19.2809C3 19.0664 3.08523 18.8606 3.23695 18.7089Z" fill="white"/>
</svg>
