<svg width="24" height="24" viewBox="0 0 24 24" fill="none" xmlns="http://www.w3.org/2000/svg">
<path d="M17.3734 15.708C16.6148 15.708 15.9353 16.0314 15.4525 16.5431L9.1525 12.8106C9.23543 12.5535 9.292 12.2848 9.292 12.0006C9.292 11.7159 9.23543 11.4471 9.1525 11.1906L15.4525 7.45821C15.9353 7.96993 16.6148 8.29329 17.3734 8.29329C18.8346 8.29329 20.0194 7.1085 20.0194 5.64729C20.0194 4.18479 18.8346 3 17.3734 3C15.9121 3 14.7274 4.18479 14.7274 5.646C14.7274 5.93143 14.7839 6.20079 14.8675 6.45857L8.56814 10.191C8.08536 9.67864 7.40586 9.354 6.646 9.354C5.18479 9.354 4 10.5388 4 12C4 13.4612 5.18479 14.646 6.646 14.646C7.40586 14.646 8.08536 14.322 8.56814 13.809L14.8675 17.5414C14.7839 17.7992 14.7274 18.0686 14.7274 18.354C14.7274 19.8152 15.9121 21 17.3734 21C18.8346 21 20.0194 19.8152 20.0194 18.354C20.0194 16.8921 18.8346 15.708 17.3734 15.708Z" fill="white"/>
</svg>
