<svg width="24" height="24" viewBox="0 0 24 24" fill="none" xmlns="http://www.w3.org/2000/svg">
<path fill-rule="evenodd" clip-rule="evenodd" d="M8.78 4.58005C9.09 4.39005 9.45 4.30005 9.82 4.30005C10.19 4.30005 10.54 4.40005 10.86 4.58005C11.19 4.77005 11.46 5.04005 11.65 5.37005C11.84 5.70005 11.94 6.07005 11.93 6.45005V18.21C11.93 18.59 11.84 18.96 11.66 19.28C11.48 19.61 11.21 19.88 10.88 20.08C10.57 20.27 10.21 20.36 9.85 20.36C9.48 20.36 9.13 20.26 8.81 20.08L8.75 20.04L4.95 16.54H2.73C2.35 16.54 1.99 16.39 1.72 16.12C1.45 15.85 1.3 15.49 1.3 15.11V9.54005C1.3 9.16005 1.45 8.80005 1.72 8.53005C1.99 8.26005 2.35 8.11005 2.73 8.11005H4.93L8.72 4.62005L8.78 4.58005ZM9.55 5.76005L5.48 9.53005H2.71V15.14H5.48L9.56 18.9C9.65 18.94 9.74 18.96 9.84 18.96C9.95 18.96 10.07 18.93 10.16 18.87C10.27 18.8 10.36 18.71 10.43 18.59C10.49 18.48 10.53 18.35 10.53 18.21V6.45005C10.53 6.32005 10.5 6.19005 10.43 6.07005C10.36 5.96005 10.27 5.86005 10.16 5.79005C10.06 5.73005 9.95 5.70005 9.83 5.70005C9.74 5.70005 9.64 5.72005 9.56 5.76005H9.55Z" fill="white"/>
<path d="M17.72 13.94C18.06 13.33 18.24 12.63 18.24 11.93C18.24 11.2 18.05 10.48 17.68 9.85C17.31 9.22 16.79 8.69 16.16 8.33C16.09 8.29 16.01 8.26 15.92 8.25H15.84C15.78 8.25 15.73 8.25 15.67 8.27C15.59 8.29 15.51 8.33 15.45 8.38C15.38 8.43 15.33 8.49 15.29 8.57C15.25 8.64 15.22 8.72 15.21 8.81C15.2 8.89 15.21 8.97 15.23 9.05C15.25 9.13 15.29 9.21 15.34 9.27C15.39 9.34 15.45 9.39 15.53 9.43C15.97 9.68 16.34 10.05 16.59 10.49C16.85 10.93 16.98 11.43 16.98 11.94C16.98 12.43 16.85 12.92 16.61 13.35C16.37 13.78 16.02 14.14 15.6 14.4C15.5 14.46 15.42 14.54 15.37 14.63C15.32 14.73 15.29 14.84 15.29 14.95C15.29 15.12 15.36 15.28 15.47 15.4C15.68 15.61 16.03 15.64 16.28 15.46C16.89 15.08 17.38 14.56 17.72 13.95V13.94Z" fill="white"/>
<path d="M17.68 18.65C17.57 18.65 17.46 18.62 17.37 18.57L17.4 18.58C17.3 18.52 17.22 18.44 17.17 18.35C17.08 18.2 17.06 18.04 17.1 17.87C17.14 17.7 17.25 17.57 17.39 17.48C18.34 16.91 19.13 16.09 19.68 15.12C20.22 14.14 20.5 13.04 20.5 11.93C20.49 10.82 20.19 9.73 19.63 8.76C19.07 7.79 18.26 6.99 17.3 6.43C17.15 6.35 17.04 6.21 17 6.05C16.95 5.89 16.98 5.71 17.06 5.57C17.14 5.42 17.28 5.31 17.44 5.27C17.49 5.25 17.55 5.25 17.6 5.25C17.7 5.25 17.81 5.28 17.9 5.33C18.08 5.47 20.07 7.02 20.71 8.11C21.38 9.27 21.75 10.58 21.75 11.92C21.76 13.25 21.42 14.58 20.76 15.74C20.1 16.9 19.15 17.88 18 18.56C17.9 18.62 17.79 18.65 17.68 18.65Z" fill="white"/>
</svg>
