<svg width="24" height="24" viewBox="0 0 24 24" fill="none" xmlns="http://www.w3.org/2000/svg">
<path fill-rule="evenodd" clip-rule="evenodd" d="M9.81336 4.30005C9.44791 4.30005 9.08913 4.39798 8.77436 4.58365L8.70962 4.62184L4.92191 8.12843H2.72311C2.34567 8.12843 1.9837 8.27837 1.71681 8.54525C1.44992 8.81214 1.29999 9.17412 1.29999 9.55155V15.1196C1.29999 15.497 1.44992 15.859 1.71681 16.1259C1.9837 16.3928 2.34567 16.5427 2.72311 16.5427H4.92304L8.72551 20.0431L8.79015 20.081C9.10521 20.2659 9.46392 20.364 9.82923 20.3653C10.1913 20.3665 10.5472 20.2719 10.8609 20.091L10.8681 20.0867C11.1932 19.894 11.4617 19.6189 11.6464 19.2891C11.8301 18.961 11.9244 18.5904 11.9198 18.2144V6.45478C11.9226 6.07599 11.8251 5.70319 11.6371 5.37426C11.4491 5.04524 11.1773 4.77189 10.8495 4.58196C10.5354 4.39739 10.1777 4.30005 9.81336 4.30005ZM5.47046 9.52843L9.54021 5.76074C9.62549 5.72087 9.71872 5.70005 9.81336 5.70005C9.92863 5.70005 10.0418 5.73096 10.141 5.78953L10.1467 5.79281C10.2612 5.85887 10.356 5.95413 10.4216 6.06885C10.4871 6.18357 10.521 6.31364 10.5198 6.44577L10.5198 18.2191L10.5199 18.2294C10.5218 18.3608 10.4891 18.4904 10.4248 18.6051C10.3613 18.7185 10.2693 18.8133 10.1579 18.8802C10.0591 18.9363 9.94734 18.9657 9.83365 18.9653C9.73655 18.965 9.64097 18.9434 9.55348 18.9024L5.46932 15.1427H2.72311C2.71698 15.1427 2.7111 15.1403 2.70676 15.1359C2.70242 15.1316 2.69999 15.1257 2.69999 15.1196V9.55155C2.69999 9.54542 2.70242 9.53954 2.70676 9.5352C2.7111 9.53087 2.71698 9.52843 2.72311 9.52843H5.47046ZM15.2067 8.20675C15.4824 7.93108 15.9294 7.93108 16.205 8.20675L19 11.0017L21.795 8.20675C22.0706 7.93108 22.5176 7.93108 22.7933 8.20675C23.0689 8.48241 23.0689 8.92935 22.7933 9.20502L19.9983 12L22.7933 14.795C23.0689 15.0706 23.0689 15.5176 22.7933 15.7933C22.5176 16.0689 22.0706 16.0689 21.795 15.7933L19 12.9983L16.205 15.7933C15.9294 16.0689 15.4824 16.0689 15.2067 15.7933C14.9311 15.5176 14.9311 15.0706 15.2067 14.795L18.0017 12L15.2067 9.20502C14.9311 8.92935 14.9311 8.48241 15.2067 8.20675Z" fill="white"/>
</svg>
