<svg width="24" height="24" viewBox="0 0 24 24" fill="none" xmlns="http://www.w3.org/2000/svg">
<path fill-rule="evenodd" clip-rule="evenodd" d="M11.3406 3.22701C11.0887 3.07839 10.8015 3 10.509 3C10.2165 3 9.92928 3.07839 9.67732 3.22701L4.88981 7.65919H1.88005C1.64664 7.65919 1.4228 7.75191 1.25776 7.91695C1.09272 8.08199 1 8.30583 1 8.53924V15.3156C1 15.549 1.09272 15.7728 1.25776 15.9379C1.4228 16.1029 1.64664 16.1956 1.88005 16.1956H4.88981L9.69493 20.619C9.94849 20.7679 10.237 20.8468 10.531 20.8478C10.8213 20.8488 11.1067 20.7729 11.3582 20.6278C11.6248 20.4698 11.845 20.2441 11.9965 19.9737C12.1479 19.7033 12.2252 19.3977 12.2207 19.0877V4.76709C12.2235 4.45545 12.1434 4.14867 11.9888 3.87808C11.8342 3.6075 11.6105 3.38282 11.3406 3.22701ZM14.2507 7.3507C14.6515 6.94983 15.3014 6.94983 15.7023 7.3507L18.6 10.2484L21.4977 7.3507C21.8986 6.94983 22.5485 6.94983 22.9494 7.3507C23.3502 7.75156 23.3502 8.40148 22.9494 8.80234L20.0517 11.7L22.9494 14.5978C23.3502 14.9986 23.3502 15.6485 22.9494 16.0494C22.5485 16.4503 21.8986 16.4503 21.4977 16.0494L18.6 13.1517L15.7023 16.0494C15.3014 16.4503 14.6515 16.4503 14.2507 16.0494C13.8498 15.6485 13.8498 14.9986 14.2507 14.5978L17.1484 11.7L14.2507 8.80234C13.8498 8.40148 13.8498 7.75156 14.2507 7.3507Z" fill="white"/>
</svg>
