<svg width="24" height="24" viewBox="0 0 24 24" fill="none" xmlns="http://www.w3.org/2000/svg">
<path d="M19.481 11.9273C19.4817 11.1526 19.2777 10.3914 18.8899 9.72075C18.502 9.0501 17.9439 8.49373 17.2721 8.10792C17.1716 8.05013 17.0606 8.01272 16.9456 7.99781C16.8306 7.9829 16.7138 7.99079 16.6018 8.02102C16.4899 8.05126 16.385 8.10325 16.2931 8.17403C16.2013 8.24481 16.1242 8.33299 16.0664 8.43353C16.0087 8.53408 15.9712 8.64502 15.9563 8.76003C15.9414 8.87503 15.9493 8.99185 15.9795 9.1038C16.0098 9.21576 16.0618 9.32066 16.1326 9.41253C16.2033 9.50439 16.2915 9.58141 16.3921 9.6392C16.7953 9.86994 17.1305 10.203 17.3638 10.6048C17.5972 11.0065 17.7203 11.4627 17.7209 11.9273C17.719 12.3785 17.6016 12.8217 17.3797 13.2145C17.1579 13.6074 16.839 13.9368 16.4537 14.1714C16.321 14.2501 16.2113 14.3622 16.1357 14.4966C16.06 14.631 16.0209 14.7829 16.0224 14.9371C16.0224 15.1705 16.1152 15.3943 16.2802 15.5594C16.4452 15.7244 16.6691 15.8171 16.9025 15.8171C17.0859 15.8159 17.2644 15.7575 17.4129 15.6499C18.0445 15.2552 18.5656 14.7066 18.9273 14.0555C19.289 13.4044 19.4795 12.6721 19.481 11.9273Z" fill="white"/>
<path d="M19.0322 5.06324C18.8291 4.94654 18.588 4.91528 18.3619 4.97635C18.1358 5.03741 17.9432 5.1858 17.8265 5.38886C17.7098 5.59192 17.6786 5.83302 17.7396 6.05913C17.8007 6.28523 17.9491 6.47782 18.1521 6.59452C19.0791 7.13273 19.8496 7.90349 20.3874 8.83064C20.9253 9.75779 21.212 10.8092 21.2191 11.8811C21.2262 12.9529 20.9535 14.0081 20.428 14.9423C19.9025 15.8765 19.1423 16.6574 18.2225 17.2079C18.0218 17.327 17.8766 17.5208 17.8189 17.7469C17.7611 17.973 17.7955 18.2128 17.9145 18.4136C17.9924 18.5449 18.1031 18.6538 18.2358 18.7294C18.3685 18.805 18.5186 18.8448 18.6714 18.8448C18.829 18.8423 18.9834 18.7999 19.1202 18.7216C20.3098 18.0159 21.294 17.0111 21.9746 15.807C22.6553 14.6029 23.0088 13.2415 22.9999 11.8584C22.991 10.4752 22.62 9.11851 21.9239 7.92326C21.2278 6.72801 20.2308 5.7359 19.0322 5.04564V5.06324Z" fill="white"/>
<path d="M11.3406 3.22701C11.0887 3.07839 10.8015 3 10.509 3C10.2165 3 9.92928 3.07839 9.67732 3.22701L4.88981 7.65919H1.88005C1.64664 7.65919 1.4228 7.75191 1.25776 7.91695C1.09272 8.08199 1 8.30583 1 8.53924V15.3156C1 15.549 1.09272 15.7728 1.25776 15.9379C1.4228 16.1029 1.64664 16.1956 1.88005 16.1956H4.88981L9.69493 20.619C9.94849 20.7679 10.237 20.8468 10.531 20.8478C10.8213 20.8488 11.1067 20.7729 11.3582 20.6278C11.6248 20.4698 11.845 20.2441 11.9965 19.9737C12.1479 19.7033 12.2252 19.3977 12.2207 19.0877V4.76709C12.2235 4.45545 12.1434 4.14867 11.9888 3.87808C11.8342 3.6075 11.6105 3.38282 11.3406 3.22701Z" fill="white"/>
</svg>
