<svg width="24" height="24" viewBox="0 0 24 24" fill="none" xmlns="http://www.w3.org/2000/svg">
<path d="M2.93125 22.4896C3.19093 22.221 3.41478 21.8628 3.60282 21.4688C4.08635 20.448 4.06844 20.3769 4.58779 19.3741C4.60569 19.3472 5.58177 18.013 6.02948 18.4607C6.15484 18.7831 6.66869 19.2941 7 19.5C7.63323 19.8978 9.16481 17.8352 10 17C11 16 11.8497 15.0934 13.2555 15.0934C13.6136 15.0934 13.9718 15.0934 14.33 15.0666C14.6434 15.0486 14.9568 15.0218 15.2612 14.977C15.5209 14.9412 15.7895 14.8875 16.0492 14.8158C16.9715 14.5651 17.7684 14.2159 18.4489 13.7861C19.1295 13.3563 19.6936 12.8459 20.1502 12.2818C20.4636 11.8878 20.7323 11.4759 20.9382 11.0372C21.1621 10.5805 21.3322 10.1059 21.4486 9.62238C21.574 9.12094 21.6366 8.61951 21.6545 8.10912C21.6814 7.49128 21.6277 6.87343 21.5113 6.28245C21.4576 5.99592 21.3859 5.70938 21.2964 5.4318C21.18 5.07363 21.0457 4.72442 20.8845 4.39311C20.786 4.18717 20.6785 3.99017 20.5621 3.80213C20.4905 3.68573 20.4189 3.57828 20.3472 3.47083C20.2577 3.34547 20.1681 3.22011 20.0696 3.11266C19.9622 2.97834 19.8368 2.85299 19.7204 2.73658C19.2459 2.26201 18.6907 1.88593 18.0818 1.60835C17.4013 1.29495 16.6491 1.10691 15.8522 1.03528C15.297 0.981551 14.724 0.990506 14.133 1.05319C13.6405 1.10691 13.1391 1.19645 12.6287 1.32181C11.9213 1.5009 11.196 1.76057 10.4886 2.09188C10.2379 2.20828 9.98719 2.33364 9.74542 2.46795C9.50366 2.60227 9.25294 2.74553 9.00222 2.89776C8.59033 3.15743 8.21425 3.42606 7.86503 3.71259C7.30092 4.17821 6.81739 4.6886 6.41445 5.22586C6.0921 5.6467 5.82224 6.02198 5.58943 6.4697C5.09694 7.40989 4.56782 8.19139 4.24629 9.15596C2.74037 13.6737 -9.39795e-07 22.5 2.00002 23C2.35819 22.9463 2.67158 22.7672 2.93125 22.4896Z" fill="white"/>
</svg>
