<svg width="24" height="24" viewBox="0 0 24 24" fill="none" xmlns="http://www.w3.org/2000/svg">
<path fill-rule="evenodd" clip-rule="evenodd" d="M4.96937 7H13.1816C14.2648 7 15.151 7.86652 15.151 8.96937V15.6061C15.151 16.6893 14.2648 17.5755 13.1816 17.5755H4.96937C3.88621 17.5755 3 16.6893 3 15.6061V8.96937C3 7.88621 3.88621 7 4.96937 7ZM19.2079 8.22119C19.3064 8.16211 19.4245 8.10303 19.5427 8.08333C20.3107 7.90609 21 8.4969 21 9.22556V15.3109C21 15.5275 20.9409 15.7245 20.8425 15.9017C20.5077 16.4728 19.7987 16.6698 19.2276 16.335L16.1357 14.5625V9.99362L19.2079 8.22119Z" fill="white"/>
</svg>
