<svg width="24" height="24" viewBox="0 0 24 24" fill="none" xmlns="http://www.w3.org/2000/svg">
<path fill-rule="evenodd" clip-rule="evenodd" d="M12 3C7.032 3 3 7.032 3 12C3 16.968 7.032 21 12 21C16.968 21 21 16.968 21 12C21 7.032 16.968 3 12 3ZM12.9 12C12.9 12.495 12.495 12.9 12 12.9C11.505 12.9 11.1 12.495 11.1 12V8.4C11.1 7.905 11.505 7.5 12 7.5C12.495 7.5 12.9 7.905 12.9 8.4V12ZM12 14.9C11.5029 14.9 11.1 15.303 11.1 15.8C11.1 16.2971 11.5029 16.7 12 16.7C12.4971 16.7 12.9 16.2971 12.9 15.8C12.9 15.303 12.4971 14.9 12 14.9ZM4.35 12C4.35 16.2171 7.78294 19.65 12 19.65C16.2171 19.65 19.65 16.2171 19.65 12C19.65 7.78294 16.2171 4.35 12 4.35C7.78294 4.35 4.35 7.78294 4.35 12Z" fill="white" fill-opacity="0.96"/>
</svg>
